<svg xmlns="http://www.w3.org/2000/svg" viewBox="0 0 200 200">
  <defs>
    <radialGradient id="bw-glow" cx="50%" cy="50%">
      <stop offset="0%" stop-color="#fff7d6"/>
      <stop offset="40%" stop-color="#ffd23f" stop-opacity="0.6"/>
      <stop offset="100%" stop-color="#ff2a18" stop-opacity="0"/>
    </radialGradient>
    <linearGradient id="bw-ray" x1="0" y1="0" x2="0" y2="1">
      <stop offset="0%" stop-color="#ffd23f" stop-opacity="0"/>
      <stop offset="50%" stop-color="#fff7d6"/>
      <stop offset="100%" stop-color="#ffd23f" stop-opacity="0"/>
    </linearGradient>
  </defs>
  <circle cx="100" cy="100" r="100" fill="url(#bw-glow)"/>
  
    <rect x="98" y="0" width="4" height="200" fill="url(#bw-ray)" opacity="0.45" transform="rotate(0 100 100)"/>
  
    <rect x="98" y="0" width="4" height="200" fill="url(#bw-ray)" opacity="0.45" transform="rotate(22.5 100 100)"/>
  
    <rect x="98" y="0" width="4" height="200" fill="url(#bw-ray)" opacity="0.45" transform="rotate(45 100 100)"/>
  
    <rect x="98" y="0" width="4" height="200" fill="url(#bw-ray)" opacity="0.45" transform="rotate(67.5 100 100)"/>
  
    <rect x="98" y="0" width="4" height="200" fill="url(#bw-ray)" opacity="0.45" transform="rotate(90 100 100)"/>
  
    <rect x="98" y="0" width="4" height="200" fill="url(#bw-ray)" opacity="0.45" transform="rotate(112.5 100 100)"/>
  
    <rect x="98" y="0" width="4" height="200" fill="url(#bw-ray)" opacity="0.45" transform="rotate(135 100 100)"/>
  
    <rect x="98" y="0" width="4" height="200" fill="url(#bw-ray)" opacity="0.45" transform="rotate(157.5 100 100)"/>
  
    <rect x="98" y="0" width="4" height="200" fill="url(#bw-ray)" opacity="0.45" transform="rotate(180 100 100)"/>
  
    <rect x="98" y="0" width="4" height="200" fill="url(#bw-ray)" opacity="0.45" transform="rotate(202.5 100 100)"/>
  
    <rect x="98" y="0" width="4" height="200" fill="url(#bw-ray)" opacity="0.45" transform="rotate(225 100 100)"/>
  
    <rect x="98" y="0" width="4" height="200" fill="url(#bw-ray)" opacity="0.45" transform="rotate(247.5 100 100)"/>
  
    <rect x="98" y="0" width="4" height="200" fill="url(#bw-ray)" opacity="0.45" transform="rotate(270 100 100)"/>
  
    <rect x="98" y="0" width="4" height="200" fill="url(#bw-ray)" opacity="0.45" transform="rotate(292.5 100 100)"/>
  
    <rect x="98" y="0" width="4" height="200" fill="url(#bw-ray)" opacity="0.45" transform="rotate(315 100 100)"/>
  
    <rect x="98" y="0" width="4" height="200" fill="url(#bw-ray)" opacity="0.45" transform="rotate(337.5 100 100)"/>
  
  <circle cx="100" cy="100" r="30" fill="#fff7d6" opacity="0.85"/>
</svg>