<svg xmlns="http://www.w3.org/2000/svg" viewBox="0 0 200 200">
  <defs>
    <radialGradient id="fw-core" cx="50%" cy="50%">
      <stop offset="0%" stop-color="#fff7d6"/>
      <stop offset="40%" stop-color="#ffd23f"/>
      <stop offset="100%" stop-color="#ff6a18" stop-opacity="0"/>
    </radialGradient>
  </defs>
  <circle cx="100" cy="100" r="60" fill="url(#fw-core)"/>
  <line x1="114.0" y1="100.0" x2="175.0" y2="100.0" stroke="#ffd23f" stroke-width="2" stroke-linecap="round"/>
            <circle cx="175.0" cy="100.0" r="3" fill="#fff7d6"/><line x1="113.3" y1="104.3" x2="164.6" y2="121.0" stroke="#ffd23f" stroke-width="2" stroke-linecap="round"/>
            <circle cx="164.6" cy="121.0" r="3" fill="#fff7d6"/><line x1="111.3" y1="108.2" x2="151.2" y2="137.2" stroke="#ffd23f" stroke-width="2" stroke-linecap="round"/>
            <circle cx="151.2" cy="137.2" r="3" fill="#fff7d6"/><line x1="108.2" y1="111.3" x2="136.6" y2="150.4" stroke="#ffd23f" stroke-width="2" stroke-linecap="round"/>
            <circle cx="136.6" cy="150.4" r="3" fill="#fff7d6"/><line x1="104.3" y1="113.3" x2="120.5" y2="163.1" stroke="#ffd23f" stroke-width="2" stroke-linecap="round"/>
            <circle cx="120.5" cy="163.1" r="3" fill="#fff7d6"/><line x1="100.0" y1="114.0" x2="100.0" y2="161.7" stroke="#ffd23f" stroke-width="2" stroke-linecap="round"/>
            <circle cx="100.0" cy="161.7" r="3" fill="#fff7d6"/><line x1="95.7" y1="113.3" x2="77.5" y2="169.3" stroke="#ffd23f" stroke-width="2" stroke-linecap="round"/>
            <circle cx="77.5" cy="169.3" r="3" fill="#fff7d6"/><line x1="91.8" y1="111.3" x2="59.6" y2="155.6" stroke="#ffd23f" stroke-width="2" stroke-linecap="round"/>
            <circle cx="59.6" cy="155.6" r="3" fill="#fff7d6"/><line x1="88.7" y1="108.2" x2="41.2" y2="142.7" stroke="#ffd23f" stroke-width="2" stroke-linecap="round"/>
            <circle cx="41.2" cy="142.7" r="3" fill="#fff7d6"/><line x1="86.7" y1="104.3" x2="30.9" y2="122.5" stroke="#ffd23f" stroke-width="2" stroke-linecap="round"/>
            <circle cx="30.9" cy="122.5" r="3" fill="#fff7d6"/><line x1="86.0" y1="100.0" x2="21.2" y2="100.0" stroke="#ffd23f" stroke-width="2" stroke-linecap="round"/>
            <circle cx="21.2" cy="100.0" r="3" fill="#fff7d6"/><line x1="86.7" y1="95.7" x2="23.3" y2="75.1" stroke="#ffd23f" stroke-width="2" stroke-linecap="round"/>
            <circle cx="23.3" cy="75.1" r="3" fill="#fff7d6"/><line x1="88.7" y1="91.8" x2="44.5" y2="59.6" stroke="#ffd23f" stroke-width="2" stroke-linecap="round"/>
            <circle cx="44.5" cy="59.6" r="3" fill="#fff7d6"/><line x1="91.8" y1="88.7" x2="61.9" y2="47.5" stroke="#ffd23f" stroke-width="2" stroke-linecap="round"/>
            <circle cx="61.9" cy="47.5" r="3" fill="#fff7d6"/><line x1="95.7" y1="86.7" x2="77.1" y2="29.4" stroke="#ffd23f" stroke-width="2" stroke-linecap="round"/>
            <circle cx="77.1" cy="29.4" r="3" fill="#fff7d6"/><line x1="100.0" y1="86.0" x2="100.0" y2="20.6" stroke="#ffd23f" stroke-width="2" stroke-linecap="round"/>
            <circle cx="100.0" cy="20.6" r="3" fill="#fff7d6"/><line x1="104.3" y1="86.7" x2="119.2" y2="41.0" stroke="#ffd23f" stroke-width="2" stroke-linecap="round"/>
            <circle cx="119.2" cy="41.0" r="3" fill="#fff7d6"/><line x1="108.2" y1="88.7" x2="147.5" y2="34.6" stroke="#ffd23f" stroke-width="2" stroke-linecap="round"/>
            <circle cx="147.5" cy="34.6" r="3" fill="#fff7d6"/><line x1="111.3" y1="91.8" x2="153.7" y2="61.0" stroke="#ffd23f" stroke-width="2" stroke-linecap="round"/>
            <circle cx="153.7" cy="61.0" r="3" fill="#fff7d6"/><line x1="113.3" y1="95.7" x2="173.4" y2="76.2" stroke="#ffd23f" stroke-width="2" stroke-linecap="round"/>
            <circle cx="173.4" cy="76.2" r="3" fill="#fff7d6"/>
  <circle cx="142.3" cy="106.7" r="2" fill="#ff8a4a"/><circle cx="144.2" cy="122.5" r="2" fill="#ff8a4a"/><circle cx="128.6" cy="128.6" r="2" fill="#ff8a4a"/><circle cx="123.5" cy="146.1" r="2" fill="#ff8a4a"/><circle cx="108.6" cy="154.4" r="2" fill="#ff8a4a"/><circle cx="92.9" cy="144.8" r="2" fill="#ff8a4a"/><circle cx="76.0" cy="147.0" r="2" fill="#ff8a4a"/><circle cx="61.1" cy="138.9" r="2" fill="#ff8a4a"/><circle cx="58.4" cy="121.2" r="2" fill="#ff8a4a"/><circle cx="46.4" cy="108.5" r="2" fill="#ff8a4a"/><circle cx="51.8" cy="92.4" r="2" fill="#ff8a4a"/><circle cx="50.1" cy="74.6" r="2" fill="#ff8a4a"/><circle cx="70.5" cy="70.5" r="2" fill="#ff8a4a"/><circle cx="79.2" cy="59.3" r="2" fill="#ff8a4a"/><circle cx="93.2" cy="57.1" r="2" fill="#ff8a4a"/><circle cx="106.8" cy="57.2" r="2" fill="#ff8a4a"/><circle cx="122.0" cy="56.8" r="2" fill="#ff8a4a"/><circle cx="131.4" cy="68.6" r="2" fill="#ff8a4a"/><circle cx="136.7" cy="81.3" r="2" fill="#ff8a4a"/><circle cx="146.7" cy="92.6" r="2" fill="#ff8a4a"/>
</svg>