<svg viewBox="0 0 100 100" xmlns="http://www.w3.org/2000/svg" role="img" aria-label="Cat WILD placeholder">
  <defs>
    <linearGradient id="cf-cat-fur" x1="0%" y1="0%" x2="0%" y2="100%">
      <stop offset="0%" stop-color="#ffc870"/>
      <stop offset="55%" stop-color="#ff9933"/>
      <stop offset="100%" stop-color="#c4541a"/>
    </linearGradient>
    <radialGradient id="cf-cat-glow" cx="50%" cy="50%" r="55%">
      <stop offset="0%" stop-color="#fff3a0" stop-opacity="0.55"/>
      <stop offset="100%" stop-color="#fff3a0" stop-opacity="0"/>
    </radialGradient>
  </defs>
  <circle cx="50" cy="50" r="48" fill="url(#cf-cat-glow)"/>
  <polygon points="20,30 27,8 39,32" fill="url(#cf-cat-fur)" stroke="#5a2800" stroke-width="2" stroke-linejoin="round"/>
  <polygon points="61,32 73,8 80,30" fill="url(#cf-cat-fur)" stroke="#5a2800" stroke-width="2" stroke-linejoin="round"/>
  <polygon points="25,28 30,16 36,28" fill="#ff7a8a"/>
  <polygon points="64,28 70,16 75,28" fill="#ff7a8a"/>
  <ellipse cx="50" cy="58" rx="33" ry="27" fill="url(#cf-cat-fur)" stroke="#5a2800" stroke-width="2"/>
  <ellipse cx="50" cy="72" rx="15" ry="9" fill="#fff5d4"/>
  <path d="M 30 52 Q 37 47 44 52" stroke="#1a0a00" stroke-width="2.8" fill="none" stroke-linecap="round"/>
  <path d="M 56 52 Q 63 47 70 52" stroke="#1a0a00" stroke-width="2.8" fill="none" stroke-linecap="round"/>
  <polygon points="46,60 54,60 50,65" fill="#c44a5a"/>
  <path d="M 50 65 Q 45 71 41 67" stroke="#5a2800" stroke-width="1.8" fill="none" stroke-linecap="round"/>
  <path d="M 50 65 Q 55 71 59 67" stroke="#5a2800" stroke-width="1.8" fill="none" stroke-linecap="round"/>
  <line x1="12" y1="60" x2="32" y2="62" stroke="#5a2800" stroke-width="1.3" stroke-linecap="round"/>
  <line x1="12" y1="68" x2="32" y2="69" stroke="#5a2800" stroke-width="1.3" stroke-linecap="round"/>
  <line x1="88" y1="60" x2="68" y2="62" stroke="#5a2800" stroke-width="1.3" stroke-linecap="round"/>
  <line x1="88" y1="68" x2="68" y2="69" stroke="#5a2800" stroke-width="1.3" stroke-linecap="round"/>
  <ellipse cx="50" cy="87" rx="23" ry="4.5" fill="#c0392b" stroke="#7a1a14" stroke-width="0.8"/>
  <circle cx="50" cy="88" r="4.5" fill="#f1c40f" stroke="#8a5a00" stroke-width="1"/>
  <text x="50" y="91" text-anchor="middle" font-size="7" font-weight="900" fill="#8a5a00" font-family="serif">福</text>
</svg>
