<svg xmlns="http://www.w3.org/2000/svg" viewBox="0 0 200 200">
  <defs>
    <radialGradient id="ly-body" cx="40%" cy="30%">
      <stop offset="0%" stop-color="#ff8a8a"/>
      <stop offset="40%" stop-color="#e02448"/>
      <stop offset="100%" stop-color="#5a0a18"/>
    </radialGradient>
    <linearGradient id="ly-leaf" x1="0" y1="0" x2="0" y2="1">
      <stop offset="0%" stop-color="#86c66a"/>
      <stop offset="100%" stop-color="#2a6628"/>
    </linearGradient>
  </defs>
  <ellipse cx="100" cy="116" rx="58" ry="64" fill="url(#ly-body)" stroke="#5a0a18" stroke-width="1.5"/>
  <!-- bumpy texture -->
  <circle cx="130.0" cy="116.0" r="3" fill="#7a0a18" stroke="#ff6a4a" stroke-width="0.6" opacity="0.85"/><circle cx="138.3" cy="134.2" r="3" fill="#7a0a18" stroke="#ff6a4a" stroke-width="0.6" opacity="0.85"/><circle cx="135.6" cy="158.6" r="3" fill="#7a0a18" stroke="#ff6a4a" stroke-width="0.6" opacity="0.85"/><circle cx="127.9" cy="127.6" r="3" fill="#7a0a18" stroke="#ff6a4a" stroke-width="0.6" opacity="0.85"/><circle cx="129.2" cy="147.7" r="3" fill="#7a0a18" stroke="#ff6a4a" stroke-width="0.6" opacity="0.85"/><circle cx="118.1" cy="169.4" r="3" fill="#7a0a18" stroke="#ff6a4a" stroke-width="0.6" opacity="0.85"/><circle cx="121.9" cy="137.6" r="3" fill="#7a0a18" stroke="#ff6a4a" stroke-width="0.6" opacity="0.85"/><circle cx="116.0" cy="156.8" r="3" fill="#7a0a18" stroke="#ff6a4a" stroke-width="0.6" opacity="0.85"/><circle cx="98.1" cy="172.7" r="3" fill="#7a0a18" stroke="#ff6a4a" stroke-width="0.6" opacity="0.85"/><circle cx="112.8" cy="144.5" r="3" fill="#7a0a18" stroke="#ff6a4a" stroke-width="0.6" opacity="0.85"/><circle cx="100.6" cy="160.1" r="3" fill="#7a0a18" stroke="#ff6a4a" stroke-width="0.6" opacity="0.85"/><circle cx="78.4" cy="168.0" r="3" fill="#7a0a18" stroke="#ff6a4a" stroke-width="0.6" opacity="0.85"/><circle cx="101.9" cy="147.4" r="3" fill="#7a0a18" stroke="#ff6a4a" stroke-width="0.6" opacity="0.85"/><circle cx="85.1" cy="157.2" r="3" fill="#7a0a18" stroke="#ff6a4a" stroke-width="0.6" opacity="0.85"/><circle cx="61.7" cy="156.0" r="3" fill="#7a0a18" stroke="#ff6a4a" stroke-width="0.6" opacity="0.85"/><circle cx="90.7" cy="146.0" r="3" fill="#7a0a18" stroke="#ff6a4a" stroke-width="0.6" opacity="0.85"/><circle cx="71.7" cy="148.6" r="3" fill="#7a0a18" stroke="#ff6a4a" stroke-width="0.6" opacity="0.85"/><circle cx="50.4" cy="138.4" r="3" fill="#7a0a18" stroke="#ff6a4a" stroke-width="0.6" opacity="0.85"/><circle cx="80.9" cy="140.3" r="3" fill="#7a0a18" stroke="#ff6a4a" stroke-width="0.6" opacity="0.85"/><circle cx="62.3" cy="135.3" r="3" fill="#7a0a18" stroke="#ff6a4a" stroke-width="0.6" opacity="0.85"/><circle cx="46.0" cy="117.6" r="3" fill="#7a0a18" stroke="#ff6a4a" stroke-width="0.6" opacity="0.85"/><circle cx="73.7" cy="131.2" r="3" fill="#7a0a18" stroke="#ff6a4a" stroke-width="0.6" opacity="0.85"/><circle cx="58.1" cy="119.4" r="3" fill="#7a0a18" stroke="#ff6a4a" stroke-width="0.6" opacity="0.85"/><circle cx="49.2" cy="96.6" r="3" fill="#7a0a18" stroke="#ff6a4a" stroke-width="0.6" opacity="0.85"/><circle cx="70.2" cy="119.9" r="3" fill="#7a0a18" stroke="#ff6a4a" stroke-width="0.6" opacity="0.85"/><circle cx="59.9" cy="103.0" r="3" fill="#7a0a18" stroke="#ff6a4a" stroke-width="0.6" opacity="0.85"/><circle cx="59.6" cy="78.4" r="3" fill="#7a0a18" stroke="#ff6a4a" stroke-width="0.6" opacity="0.85"/><circle cx="70.9" cy="108.2" r="3" fill="#7a0a18" stroke="#ff6a4a" stroke-width="0.6" opacity="0.85"/><circle cx="67.3" cy="88.4" r="3" fill="#7a0a18" stroke="#ff6a4a" stroke-width="0.6" opacity="0.85"/><circle cx="75.6" cy="65.4" r="3" fill="#7a0a18" stroke="#ff6a4a" stroke-width="0.6" opacity="0.85"/><circle cx="75.7" cy="97.5" r="3" fill="#7a0a18" stroke="#ff6a4a" stroke-width="0.6" opacity="0.85"/><circle cx="79.2" cy="77.7" r="3" fill="#7a0a18" stroke="#ff6a4a" stroke-width="0.6" opacity="0.85"/><circle cx="95.1" cy="59.5" r="3" fill="#7a0a18" stroke="#ff6a4a" stroke-width="0.6" opacity="0.85"/><circle cx="83.9" cy="89.4" r="3" fill="#7a0a18" stroke="#ff6a4a" stroke-width="0.6" opacity="0.85"/><circle cx="94.1" cy="72.3" r="3" fill="#7a0a18" stroke="#ff6a4a" stroke-width="0.6" opacity="0.85"/><circle cx="115.2" cy="61.6" r="3" fill="#7a0a18" stroke="#ff6a4a" stroke-width="0.6" opacity="0.85"/><circle cx="94.4" cy="85.1" r="3" fill="#7a0a18" stroke="#ff6a4a" stroke-width="0.6" opacity="0.85"/><circle cx="109.9" cy="73.1" r="3" fill="#7a0a18" stroke="#ff6a4a" stroke-width="0.6" opacity="0.85"/><circle cx="133.2" cy="71.3" r="3" fill="#7a0a18" stroke="#ff6a4a" stroke-width="0.6" opacity="0.85"/><circle cx="105.6" cy="85.1" r="3" fill="#7a0a18" stroke="#ff6a4a" stroke-width="0.6" opacity="0.85"/><circle cx="124.2" cy="80.0" r="3" fill="#7a0a18" stroke="#ff6a4a" stroke-width="0.6" opacity="0.85"/><circle cx="146.6" cy="87.3" r="3" fill="#7a0a18" stroke="#ff6a4a" stroke-width="0.6" opacity="0.85"/><circle cx="116.1" cy="89.4" r="3" fill="#7a0a18" stroke="#ff6a4a" stroke-width="0.6" opacity="0.85"/><circle cx="135.1" cy="91.8" r="3" fill="#7a0a18" stroke="#ff6a4a" stroke-width="0.6" opacity="0.85"/><circle cx="153.4" cy="107.3" r="3" fill="#7a0a18" stroke="#ff6a4a" stroke-width="0.6" opacity="0.85"/><circle cx="124.3" cy="97.5" r="3" fill="#7a0a18" stroke="#ff6a4a" stroke-width="0.6" opacity="0.85"/><circle cx="141.1" cy="107.1" r="3" fill="#7a0a18" stroke="#ff6a4a" stroke-width="0.6" opacity="0.85"/><circle cx="152.7" cy="128.5" r="3" fill="#7a0a18" stroke="#ff6a4a" stroke-width="0.6" opacity="0.85"/><circle cx="129.1" cy="108.2" r="3" fill="#7a0a18" stroke="#ff6a4a" stroke-width="0.6" opacity="0.85"/><circle cx="141.4" cy="123.6" r="3" fill="#7a0a18" stroke="#ff6a4a" stroke-width="0.6" opacity="0.85"/>
  <ellipse cx="80" cy="80" rx="14" ry="20" fill="#fff7d6" opacity="0.3"/>
  <!-- stem and leaf -->
  <path d="M100 52 L100 36" stroke="#5a3a08" stroke-width="3"/>
  <path d="M100 38 Q124 28 132 40 Q118 50 100 44 Z" fill="url(#ly-leaf)" stroke="#1a4a18" stroke-width="1"/>
</svg>